# xmcd CD database file
# Copyright (C) 1996 Ti Kan
#
# Track frame offsets:
#	150
#	10607
#	21470
#	33665
#	43062
#	52210
#	66855
#	77560
#	90745
#	100832
#	112172
#	122885
#
# Disc length: 1823 seconds
#
# Revision: 1
# Processed by: cddbd v1.4b41PL1 Copyright (c) Steve Scherf et al.
# Submitted via: EasyCD 2.21 - (C) 1996 Greg Leichner
#
DISCID=a4071d0c
DTITLE=Rose Maddox - Sings Bluegrass
DYEAR=1900
DGENRE=
TTITLE0=Rollin' In My Sweet Baby's Arms
TTITLE1=Down,Down,Down
TTITLE2=My Rose Of Old Kentucky
TTITLE3=Cotton Fields (The Cotton Song)
TTITLE4=Uncle Pen
TTITLE5=I'll Meet You In Church Sunday Morning
TTITLE6=Old Slew Foot
TTITLE7=Each Season Changes You
TTITLE8=Blue Moon Of Kentucky
TTITLE9=Footprints In The Snow
TTITLE10=Molley And Tenbrooks
TTITLE11=The Old Crossroads Is Waitin'
EXTD=
EXTT0=
EXTT1=
EXTT2=
EXTT3=
EXTT4=
EXTT5=
EXTT6=
EXTT7=
EXTT8=
EXTT9=
EXTT10=
EXTT11=
PLAYORDER=
